<svg width="602" height="590" viewBox="0 0 602 590" fill="none" xmlns="http://www.w3.org/2000/svg">
<path d="M121.552 105.838C122.769 104.779 124.044 103.853 125.359 103.094L274.28 17.1122L287.398 24.7346L138.474 110.716C137.16 111.475 135.883 112.401 134.667 113.461C132.154 115.646 129.893 118.4 128.05 121.425L114.935 113.802C116.776 110.777 119.041 108.024 121.552 105.838Z" fill="#F4F4FA"/>
<path d="M138.474 110.716L125.358 103.094C116.847 108.007 109.971 119.918 110 129.695L123.117 137.317C123.088 127.538 129.963 115.63 138.474 110.716Z" fill="#F4F4FA"/>
<path d="M291.532 424.787L288.541 428.94C297.052 424.026 303.928 412.118 303.899 402.341L301.771 407.053C301.795 413.564 297.201 421.519 291.532 424.787Z" fill="#BFBEED"/>
<path d="M142.608 510.769L139.617 514.922L288.54 428.94L291.531 424.787L142.608 510.769Z" fill="#BFBEED"/>
<path d="M132.464 506.855L124.401 509.055C124.928 512.141 126.288 514.414 128.231 515.729L135.018 511.305C133.723 510.429 132.815 508.914 132.464 506.855Z" fill="#F4F4FA"/>
<path d="M135.018 511.305L128.23 515.729C131.058 517.641 135.115 517.522 139.619 514.922L142.61 510.769C139.612 512.503 136.905 512.58 135.018 511.305Z" fill="#BFBEED"/>
<path d="M115.541 508.371L128.656 515.996C125.892 514.388 124.176 510.97 124.161 506.112L111.048 498.49C111.06 503.35 112.774 506.767 115.541 508.371Z" fill="#BFBEED"/>
<mask id="mask0_829_5647" style="mask-type:luminance" maskUnits="userSpaceOnUse" x="111" y="498" width="18" height="18">
<path d="M115.542 508.371L128.657 515.996C125.893 514.388 124.177 510.97 124.162 506.112L111.049 498.49C111.061 503.35 112.775 506.767 115.542 508.371Z" fill="white"/>
</mask>
<g mask="url(#mask0_829_5647)">
<path d="M124.162 506.112L111.049 498.49C111.061 503.35 112.775 506.767 115.542 508.371L128.657 515.996C125.893 514.388 124.177 510.97 124.162 506.112Z" fill="#BFBEED"/>
</g>
<path d="M301.772 407.053L303.899 402.341L302.854 33.5439L300.727 38.258L301.772 407.053Z" fill="#BFBEED"/>
<path d="M300.729 38.258L302.856 33.5439C302.851 31.9989 302.675 30.5996 302.347 29.3568L300.391 35.4666C300.608 36.294 300.727 37.2274 300.729 38.258Z" fill="#BFBEED"/>
<path d="M300.391 35.4667L302.348 29.3568C301.589 26.4827 300.02 24.4521 297.9 23.4143L297.425 31.5062C298.837 32.1986 299.885 33.5512 300.391 35.4667Z" fill="#F4F4FA"/>
<path d="M297.424 31.5063L297.899 23.4144C295.962 22.4666 293.564 22.3479 290.904 23.1716L292.759 31.3426C294.53 30.794 296.131 30.8732 297.424 31.5063Z" fill="#F4F4FA"/>
<path d="M292.757 31.3426L290.903 23.1716C289.775 23.5205 288.601 24.0385 287.396 24.7346L290.421 32.384C291.225 31.9199 292.005 31.5746 292.757 31.3426Z" fill="#F4F4FA"/>
<path d="M298.361 23.6608L285.245 16.0402C282.443 14.4107 278.564 14.6427 274.281 17.1122L287.397 24.7346C291.679 22.2633 295.559 22.0331 298.361 23.6608Z" fill="#F4F4FA"/>
<mask id="mask1_829_5647" style="mask-type:luminance" maskUnits="userSpaceOnUse" x="274" y="15" width="25" height="10">
<path d="M298.361 23.6608L285.245 16.0402C282.443 14.4107 278.564 14.6427 274.281 17.1122L287.397 24.7346C291.679 22.2633 295.559 22.0331 298.361 23.6608Z" fill="white"/>
</mask>
<g mask="url(#mask1_829_5647)">
<path d="M298.362 23.6608L285.246 16.0402C283.547 15.0527 281.451 14.7488 279.111 15.2128L292.227 22.8352C294.568 22.3694 296.662 22.6751 298.362 23.6608Z" fill="#F4F4FA"/>
<path d="M292.226 22.8352L279.11 15.2128C277.591 15.5132 275.967 16.1391 274.281 17.1122L287.397 24.7346C289.084 23.7615 290.706 23.1356 292.226 22.8352Z" fill="#F4F4FA"/>
</g>
<path d="M131.258 136.1L132.303 504.896C132.305 505.594 132.359 506.249 132.463 506.855L124.4 509.055C124.244 508.143 124.163 507.161 124.159 506.112L123.116 137.317L131.258 136.1Z" fill="#F4F4FA"/>
<path d="M123.117 137.317L110 129.695L111.047 498.49L124.16 506.112L123.117 137.317Z" fill="#BFBEED"/>
<path d="M290.422 32.3839L287.397 24.7345L138.474 110.716L141.499 118.365L290.422 32.3839Z" fill="#F4F4FA"/>
<path d="M141.497 118.365C135.828 121.633 131.236 129.589 131.258 136.099L132.303 504.896C132.319 511.411 136.941 514.044 142.609 510.769L291.532 424.787C297.201 421.519 301.795 413.564 301.771 407.053L300.726 38.2581C300.71 31.7418 296.09 29.1087 290.42 32.3839L141.497 118.365Z" fill="#F4F4FA"/>
<path d="M141.5 118.365L138.474 110.716C131.805 114.565 126.143 122.711 124.016 130.759L131.857 131.731C133.277 126.364 137.059 120.927 141.5 118.365Z" fill="#F4F4FA"/>
<path d="M131.856 131.731L124.014 130.759C123.427 132.984 123.109 135.2 123.116 137.317L131.259 136.099C131.255 134.691 131.465 133.215 131.856 131.731Z" fill="#F4F4FA"/>
<path d="M128.049 121.425L114.934 113.802C112.812 117.286 111.243 121.13 110.495 124.884L123.609 132.506C124.36 128.752 125.927 124.907 128.049 121.425Z" fill="#F4F4FA"/>
<path d="M123.608 132.506L110.495 124.884C110.167 126.517 109.996 128.134 110 129.695L123.117 137.317C123.11 135.756 123.283 134.139 123.608 132.506Z" fill="#BFBEED"/>
<path d="M131.965 493.474C131.965 495.427 132.386 497.038 133.137 498.24C134.857 501.042 138.305 501.639 142.269 499.342C142.269 499.342 292.712 412.391 293.435 411.787C298.025 407.967 301.453 401.258 301.433 395.632L300.379 38.2276C300.368 31.7149 295.749 29.0782 290.075 32.3499L141.155 118.333C136.801 120.844 133.069 126.137 131.605 131.42C131.341 132.359 131.145 133.296 131.028 134.213C130.95 134.839 131.965 493.474 131.965 493.474Z" fill="#E41B22"/>
<path d="M184.858 114.38L248.176 77.8235C251.73 75.7731 254.971 71.559 256.527 66.9726L263.35 46.8392L169.684 100.916L176.509 113.169C178.063 115.961 181.304 116.43 184.858 114.38Z" fill="#F4F4FA"/>
<path d="M191.846 99.0791C191.749 103.466 188.515 108.754 184.639 110.865C183.623 111.417 182.639 111.7 181.794 111.678C181.035 111.658 180.402 111.399 179.918 110.928C179.165 110.2 178.764 108.966 178.801 107.349C178.898 102.96 182.132 97.6743 186.008 95.5646C187.023 95.0106 188.008 94.7301 188.855 94.7516C189.273 94.7606 189.65 94.8452 189.985 94.9963C191.215 95.5448 191.893 96.9891 191.846 99.0791Z" fill="#F4F4FA"/>
<path d="M191.104 98.5756C191.006 102.964 187.771 108.252 183.897 110.362C182.882 110.914 181.897 111.194 181.05 111.175C180.632 111.164 180.255 111.079 179.918 110.928C179.165 110.2 178.764 108.966 178.801 107.349C178.898 102.961 182.132 97.6745 186.008 95.5647C187.023 95.0108 188.008 94.7302 188.855 94.7518C189.273 94.7608 189.65 94.8453 189.985 94.9964C190.738 95.7212 191.14 96.9568 191.104 98.5756Z" fill="#BFBEED"/>
<path d="M181.064 110.556C180.778 110.547 180.512 110.497 180.273 110.405C179.692 109.781 179.39 108.707 179.42 107.364C179.514 103.171 182.602 98.1223 186.305 96.1097C187.222 95.6079 188.1 95.3525 188.839 95.3705C189.127 95.3777 189.393 95.4281 189.631 95.5198C190.213 96.1403 190.514 97.214 190.483 98.563C190.391 102.755 187.303 107.802 183.6 109.817C182.681 110.319 181.805 110.574 181.064 110.556Z" fill="#E41B22"/>
<path d="M185.895 98.1564C185.883 98.6798 185.498 99.3075 185.037 99.5575C184.579 99.8093 184.215 99.5881 184.228 99.0629C184.24 98.5395 184.625 97.9118 185.086 97.6618C185.546 97.4118 185.908 97.633 185.895 98.1564Z" fill="#E41B22"/>
<path d="M183.867 99.367C184.087 99.6962 183.936 100.351 183.531 100.829C183.126 101.308 182.619 101.43 182.401 101.101C182.18 100.774 182.333 100.119 182.738 99.6404C183.144 99.1602 183.65 99.0379 183.867 99.367Z" fill="#E41B22"/>
<path d="M182.131 101.541C182.524 101.586 182.646 102.092 182.403 102.669C182.162 103.25 181.649 103.682 181.257 103.637C180.865 103.592 180.743 103.086 180.984 102.507C181.225 101.928 181.739 101.496 182.131 101.541Z" fill="#E41B22"/>
<path d="M181.152 104.095C181.613 103.845 181.976 104.067 181.962 104.59C181.949 105.113 181.564 105.743 181.105 105.993C180.643 106.245 180.282 106.022 180.294 105.498C180.309 104.975 180.692 104.345 181.152 104.095Z" fill="#E41B22"/>
<path d="M181.189 106.347C181.593 105.869 182.099 105.747 182.318 106.076C182.538 106.403 182.385 107.058 181.982 107.534C181.575 108.015 181.07 108.137 180.851 107.81C180.633 107.48 180.784 106.826 181.189 106.347Z" fill="#E41B22"/>
<path d="M182.234 107.691C182.477 107.112 182.989 106.68 183.381 106.725C183.774 106.77 183.896 107.275 183.655 107.854C183.414 108.434 182.899 108.865 182.507 108.82C182.115 108.775 181.993 108.27 182.234 107.691Z" fill="#E41B22"/>
<path d="M184.011 107.768C184.024 107.247 184.409 106.617 184.867 106.367C185.328 106.115 185.689 106.338 185.677 106.862C185.664 107.385 185.281 108.013 184.821 108.265C184.36 108.513 183.997 108.293 184.011 107.768Z" fill="#E41B22"/>
<path d="M186.034 106.558C185.816 106.23 185.968 105.576 186.372 105.097C186.777 104.617 187.282 104.496 187.502 104.824C187.721 105.153 187.57 105.808 187.164 106.286C186.759 106.765 186.254 106.887 186.034 106.558Z" fill="#E41B22"/>
<path d="M187.771 104.385C187.379 104.338 187.258 103.835 187.499 103.255C187.74 102.676 188.254 102.243 188.647 102.288C189.039 102.333 189.161 102.838 188.918 103.419C188.677 103.996 188.163 104.43 187.771 104.385Z" fill="#E41B22"/>
<path d="M188.754 101.829C188.294 102.079 187.93 101.858 187.945 101.335C187.957 100.811 188.34 100.184 188.801 99.9317C189.261 99.6817 189.623 99.9048 189.61 100.428C189.598 100.952 189.213 101.579 188.754 101.829Z" fill="#E41B22"/>
<path d="M188.715 99.5774C188.309 100.056 187.803 100.18 187.584 99.8508C187.366 99.5234 187.517 98.8687 187.924 98.3903C188.327 97.9101 188.834 97.7878 189.051 98.1169C189.271 98.4461 189.12 99.099 188.715 99.5774Z" fill="#E41B22"/>
<path d="M187.668 98.2337C187.427 98.8129 186.913 99.2463 186.521 99.1995C186.129 99.1564 186.008 98.6492 186.249 98.0718C186.49 97.4927 187.003 97.0592 187.395 97.1042C187.789 97.1492 187.909 97.6546 187.668 98.2337Z" fill="#E41B22"/>
<path d="M186.902 101.901C186.871 103.126 185.974 104.595 184.896 105.182C183.819 105.77 182.97 105.25 183.001 104.025C183.031 102.797 183.931 101.329 185.008 100.743C186.085 100.156 186.933 100.674 186.902 101.901Z" fill="#E41B22"/>
<path d="M212.507 87.0609C212.41 91.4494 209.178 96.7373 205.3 98.8488C204.284 99.401 203.3 99.6816 202.455 99.66C201.696 99.642 201.065 99.3812 200.579 98.9118C199.827 98.1816 199.426 96.9495 199.462 95.3326C199.559 90.9422 202.793 85.6562 206.669 83.5464C207.684 82.9942 208.669 82.7119 209.516 82.7352C209.934 82.7442 210.311 82.827 210.646 82.9781C211.876 83.5266 212.556 84.9709 212.507 87.0609Z" fill="#F4F4FA"/>
<path d="M211.765 86.5592C211.667 90.9478 208.434 96.2356 204.558 98.3436C203.543 98.8976 202.559 99.1781 201.71 99.1566C201.295 99.1458 200.915 99.0631 200.579 98.912C199.827 98.1817 199.426 96.9497 199.462 95.3328C199.559 90.9424 202.793 85.6563 206.669 83.5466C207.684 82.9944 208.669 82.7121 209.516 82.7354C209.934 82.7444 210.311 82.8272 210.646 82.9783C211.399 83.7049 211.802 84.9405 211.765 86.5592Z" fill="#BFBEED"/>
<path d="M201.729 98.5378C201.442 98.5306 201.175 98.4802 200.936 98.3867C200.355 97.7626 200.053 96.6889 200.085 95.3471C200.177 91.1546 203.267 86.1042 206.969 84.0915C207.888 83.5897 208.764 83.3344 209.505 83.3541C209.791 83.3613 210.057 83.4099 210.296 83.5034C210.877 84.1239 211.177 85.1977 211.148 86.5448C211.055 90.7373 207.967 95.786 204.263 97.8004C203.344 98.3004 202.468 98.5558 201.729 98.5378Z" fill="#E41B22"/>
<path d="M206.558 86.1382C206.546 86.6634 206.163 87.291 205.7 87.541C205.242 87.791 204.878 87.5698 204.891 87.0464C204.905 86.5212 205.288 85.8954 205.749 85.6454C206.209 85.3936 206.571 85.6148 206.558 86.1382Z" fill="#E41B22"/>
<path d="M204.532 87.3507C204.75 87.678 204.599 88.3327 204.194 88.8111C203.788 89.2895 203.282 89.4118 203.065 89.0827C202.845 88.7553 202.996 88.1007 203.401 87.6223C203.807 87.1438 204.313 87.0215 204.532 87.3507Z" fill="#E41B22"/>
<path d="M202.793 89.5231C203.185 89.5681 203.307 90.0735 203.064 90.6527C202.825 91.2318 202.311 91.6653 201.918 91.6203C201.526 91.5736 201.404 91.0682 201.645 90.4908C201.888 89.9117 202.402 89.48 202.793 89.5231Z" fill="#E41B22"/>
<path d="M201.815 92.079C202.276 91.8272 202.639 92.0502 202.625 92.5736C202.612 93.097 202.229 93.7247 201.769 93.9747C201.306 94.2247 200.945 94.0053 200.957 93.4801C200.972 92.9567 201.357 92.3272 201.815 92.079Z" fill="#E41B22"/>
<path d="M201.85 94.3308C202.256 93.8506 202.76 93.7283 202.979 94.0574C203.199 94.3848 203.048 95.0395 202.643 95.5179C202.236 95.9963 201.733 96.1186 201.512 95.7913C201.294 95.4621 201.445 94.8092 201.85 94.3308Z" fill="#E41B22"/>
<path d="M202.898 95.6746C203.141 95.0954 203.655 94.6619 204.047 94.7069C204.438 94.7519 204.56 95.2573 204.319 95.8364C204.078 96.4156 203.564 96.849 203.172 96.804C202.779 96.7591 202.659 96.2537 202.898 95.6746Z" fill="#E41B22"/>
<path d="M204.673 95.7501C204.686 95.2267 205.071 94.599 205.529 94.349C205.992 94.099 206.353 94.3202 206.34 94.8436C206.326 95.3688 205.943 95.9947 205.483 96.2465C205.022 96.4965 204.661 96.2753 204.673 95.7501Z" fill="#E41B22"/>
<path d="M206.7 94.5394C206.479 94.2121 206.632 93.5574 207.038 93.0789C207.443 92.6005 207.948 92.4782 208.166 92.8056C208.385 93.1347 208.234 93.7894 207.828 94.2678C207.425 94.7463 206.918 94.8686 206.7 94.5394Z" fill="#E41B22"/>
<path d="M208.434 92.3668C208.041 92.3218 207.92 91.8164 208.161 91.2373C208.404 90.6581 208.917 90.2247 209.309 90.2697C209.701 90.3146 209.821 90.8218 209.58 91.401C209.339 91.9783 208.827 92.4118 208.434 92.3668Z" fill="#E41B22"/>
<path d="M209.415 89.8128C208.955 90.0628 208.593 89.8415 208.606 89.3182C208.618 88.793 209.003 88.1653 209.462 87.9152C209.922 87.6652 210.286 87.8865 210.271 88.4099C210.259 88.935 209.876 89.561 209.415 89.8128Z" fill="#E41B22"/>
<path d="M209.377 87.561C208.972 88.0412 208.465 88.1617 208.247 87.8344C208.03 87.5052 208.179 86.8505 208.585 86.3703C208.988 85.8919 209.496 85.7714 209.713 86.0987C209.933 86.4279 209.782 87.0826 209.377 87.561Z" fill="#E41B22"/>
<path d="M208.33 86.2174C208.089 86.7947 207.577 87.2282 207.183 87.1832C206.791 87.1382 206.67 86.6328 206.911 86.0537C207.154 85.4745 207.667 85.0429 208.059 85.0879C208.451 85.131 208.573 85.6382 208.33 86.2174Z" fill="#E41B22"/>
<path d="M207.564 89.8847C207.534 91.1095 206.636 92.579 205.559 93.1653C204.482 93.7517 203.633 93.2319 203.665 92.007C203.694 90.7804 204.593 89.3128 205.67 88.7246C206.748 88.1401 207.595 88.6581 207.564 89.8847Z" fill="#E41B22"/>
<path d="M222.743 83.622L230.605 79.0824C232.073 78.2352 233.274 76.156 233.274 74.46C233.274 72.7657 232.073 72.0715 230.605 72.9204L222.743 77.4583C221.276 78.3054 220.076 80.3845 220.076 82.0806C220.076 83.7749 221.276 84.4674 222.743 83.622Z" fill="#E41B22"/>
<path d="M324.4 367.822C324.668 367.637 325.051 367.65 325.364 367.776C325.675 367.901 325.93 368.123 326.177 368.34C328.526 370.416 331.073 373.108 333.094 375.454L332.925 375.351C333.216 375.677 333.495 376.013 333.758 376.362L333.898 376.567C334.833 376.819 335.778 377.139 336.404 377.822C336.839 378.297 337.069 378.903 337.235 379.502C337.512 380.506 337.792 383.515 337.754 384.544C337.744 384.821 337.114 385.6 336.697 385.675L336.578 385.583L336.551 385.672C335.839 386.22 335.236 386.893 334.79 387.646C334.42 388.269 333.711 388.13 332.975 388.351C330.238 384.997 326.787 383.227 324.76 379.479C324.506 379.011 324.279 378.495 324.384 377.988C324.484 377.483 325.06 377.04 325.59 377.222C325.348 376.74 325.461 376.134 325.864 375.767C326.263 375.402 326.921 375.303 327.441 375.529C327.314 375.067 327.594 374.563 328.038 374.331C328.247 374.224 328.483 374.17 328.725 374.162C327.441 372.916 326.276 371.697 325.024 370.114C324.614 369.596 323.934 368.939 324.08 368.322C324.125 368.128 324.229 367.939 324.4 367.822Z" fill="#F9D5C3"/>
<path d="M404.938 557.112C404.751 556.519 404.373 556.201 403.299 556.113C402.029 556.008 400.754 555.951 399.483 555.87C397.76 555.763 396.04 555.651 394.317 555.541C394.403 554.147 394.445 552.732 394.598 551.347C392.768 551.737 391.75 551.203 389.999 550.554C387.936 549.793 385.84 549.102 383.729 548.487C382.826 548.226 381.878 547.975 380.955 548.163C378.63 548.638 377.36 552.468 377.673 554.478C377.894 555.901 378.856 557.112 379.988 558.003C381.682 559.339 384.069 560.428 386.204 560.748C388.491 561.092 390.594 561.803 392.438 563.248C394.822 565.115 396.524 567.086 399.684 567.311C402.859 567.538 405.49 565.613 405.612 562.334C405.655 561.158 405.449 559.991 405.243 558.832C405.114 558.106 405.074 557.537 404.938 557.112Z" fill="#BFBEED"/>
<path d="M388.817 562.861C388.815 562.609 388.82 562.36 388.836 562.107C389.004 559.527 388.013 557.348 387.07 554.962C386.721 554.074 386.338 553.14 385.592 552.545C383.887 551.188 381.185 552.378 380.104 554.27C379.602 555.145 379.326 556.133 378.876 557.038C378.02 558.753 376.302 560.802 374.23 560.896C371.446 561.019 368.318 560.062 365.496 559.892C364.397 559.826 363.259 559.788 362.239 560.202C359.834 561.175 359.14 565.053 359.998 567.221C360.528 568.557 361.734 569.525 363.034 570.146C364.984 571.074 367.552 571.608 369.707 571.446C372.014 571.275 374.219 571.507 376.338 572.503C379.973 574.219 384.198 576.685 387.867 573.342C388.849 572.449 389.327 571.112 389.443 569.789C389.644 567.449 388.851 565.183 388.817 562.861Z" fill="#BFBEED"/>
<path d="M399.374 455.705C397.669 457.518 390.986 454.425 390.874 453.56C382.871 447.664 384.396 471.954 386.89 481.56C388.227 486.738 388.042 492.168 388.894 497.44C389.842 503.314 391.227 509.12 393.034 514.792C393.425 516.017 393.862 517.282 394.766 518.195C396.633 520.084 399.707 519.821 402.313 519.328C404.574 518.902 407.096 518.201 408.164 516.165C408.822 514.911 408.765 513.418 408.718 512.006C408.605 508.274 408.486 504.422 409.141 500.738C409.837 496.808 410.536 492.878 411.233 488.949C411.84 485.51 412.452 482.065 412.713 478.585C413.184 472.29 412.501 465.97 411.38 459.777C410.792 456.525 411.727 450.385 407.078 449.838C402.873 449.345 400.513 454.5 399.374 455.705Z" fill="#E41B22"/>
<path d="M390.749 509.963L389.447 504.503C389.969 506.303 390.395 508.127 390.749 509.963Z" fill="#6E4CB3"/>
<path d="M393.924 512.708C395.224 510.814 398.557 510.83 399.683 511.296C400.57 511.664 406.856 507.85 408.694 506.395C408.557 506.504 408.847 508.044 408.867 508.274C408.922 508.92 408.978 509.567 409.027 510.215C409.129 511.49 409.219 512.769 409.298 514.046C409.449 516.548 409.599 519.049 409.599 521.555C409.6 539.679 406.296 555.476 405.958 557.302C405.787 558.215 405.599 559.174 405.007 559.892C404.165 560.908 401.762 561.935 398.278 561.404C396.063 561.066 394.194 559.588 393.46 557.44C392.816 555.559 392.931 553.516 393.055 551.53C393.539 543.699 394.068 535.928 393.886 528.077C393.739 521.767 393.248 515.42 391.902 509.267L393.924 512.708Z" fill="#E41B22"/>
<path d="M372.197 473.295C371.78 480.955 371.85 488.644 372.465 496.285C372.837 500.898 373.399 505.492 374.143 510.051C374.516 512.33 374.935 514.602 375.4 516.861C375.848 519.033 376.278 519.72 378.062 520.908C381.89 523.456 388.908 523.312 391.804 518.979C394.921 514.319 393.865 506.906 394.958 501.601C396.545 493.893 401.849 488.344 404.404 481.047C405.322 478.43 405.762 475.871 405.886 473.295H372.197Z" fill="#E41B22"/>
<path d="M413.892 436.915C414.063 435.552 414.266 434.19 414.505 432.834C415.645 426.338 417.59 419.994 418.408 413.438C419.043 408.348 419.5 402.001 415.462 398.067C414.804 397.425 414.046 396.893 413.248 396.443C405.402 392.012 397.899 397.407 390.543 400.055C385.713 401.798 381.08 404.08 376.753 406.845C375.247 407.807 373.704 408.467 372.69 409.967C371.616 411.553 371.042 413.271 370.931 415.192C370.808 417.372 371.208 419.543 371.571 421.695C373.686 434.23 374.616 447.047 373.107 459.667C372.454 465.101 371.81 479.946 371.81 479.946C373.618 480.732 374.774 481.475 383.541 481.63C401.643 481.954 411.656 477.391 412.699 476.437C413.741 475.484 413.376 473.288 413.412 471.971C413.527 468.033 413.449 464.092 413.358 460.155C413.176 452.408 412.924 444.626 413.892 436.915Z" fill="#DADAF9"/>
<path d="M375.574 520.483C375.813 524.46 376.027 528.434 376.201 532.415C376.342 535.561 376.457 538.708 376.541 541.856C376.606 544.282 376.651 546.706 376.674 549.131C376.791 562.408 375.313 565.356 381.523 567.237C382.916 567.656 384.401 567.811 385.82 567.498C389.919 566.595 390.714 563.035 391.331 558.609C391.676 556.124 391.882 553.12 392.027 550.6C392.151 548.473 392.25 546.34 392.338 544.208C392.466 541.325 392.57 538.442 392.675 535.555C392.808 531.751 392.939 527.945 393.06 524.139C393.222 519.274 393.765 514.317 393.923 509.452C393.945 508.745 393.516 508.001 392.964 507.614C392.245 507.114 377.451 512.096 375.919 513.718C375.919 513.718 375.279 515.571 375.574 520.483Z" fill="#E41B22"/>
<path d="M374.638 403.717C369.818 403.001 358.318 400.817 355.789 399.281C349.188 395.267 342.202 387.188 339.278 383.26C338.292 381.934 330.139 387.173 330.112 388.351C330.091 389.319 336.449 399.213 337.442 400.666C342.514 408.094 347.4 412.14 349.093 413.069C353.568 415.524 371.354 422.872 372.46 423.118C375.658 423.83 381.298 420.703 382.579 418.447C390.781 404.022 376.584 404.006 374.638 403.717Z" fill="#F4F4FA"/>
<path d="M388.579 393.668C388.296 391.722 386.827 392.175 387.57 390.411C388.199 388.916 389.158 387.538 390.442 386.544C391.726 385.551 393.35 384.963 394.971 385.053C395.528 385.085 395.903 385.404 396.457 385.405C397.987 385.411 399.525 385.118 401.052 385.339C402.572 385.56 403.976 385.672 403.976 387.387C403.975 389.673 403.87 391.873 404.602 394.119C404.993 395.321 405.584 396.481 405.691 397.738C405.896 400.213 404.088 402.521 401.852 403.602C399.104 404.931 395.996 404.809 393.073 404.384C391.606 404.172 389.539 403.88 388.679 402.481C388.032 401.429 388.309 400.046 388.447 398.893C388.658 397.147 388.836 395.422 388.579 393.668Z" fill="#F9D5C3"/>
<path d="M391.879 364.448L398.248 368.151C397.796 367.889 397.176 367.923 396.491 368.321L390.118 364.617C390.802 364.22 391.426 364.187 391.879 364.448Z" fill="#E41B22"/>
<mask id="mask2_829_5647" style="mask-type:luminance" maskUnits="userSpaceOnUse" x="390" y="364" width="9" height="5">
<path d="M391.876 364.448L398.245 368.151C397.793 367.889 397.173 367.923 396.488 368.32L390.115 364.617C390.799 364.22 391.423 364.187 391.876 364.448Z" fill="white"/>
</mask>
<g mask="url(#mask2_829_5647)">
<path d="M396.488 368.32L390.115 364.617C390.799 364.22 391.423 364.187 391.876 364.448L398.245 368.151C397.793 367.889 397.173 367.923 396.488 368.32Z" fill="#7F89A6"/>
</g>
<path d="M382.016 368.815C381.093 369.941 380.368 371.206 380.149 372.688C379.656 375.993 380.985 379.391 380.267 382.67C379.573 385.848 380.935 393.062 387.201 394.911C390.37 395.846 396.626 394.751 398.638 393.787C401.338 392.494 403.12 389.877 404.719 387.342C417.806 366.563 390.892 358.015 382.016 368.815Z" fill="#F9D5C3"/>
<path d="M410.684 378.028C410.6 378.641 410.513 379.26 410.396 379.867C410.306 380.33 410.198 380.787 410.055 381.234C409.932 381.623 409.787 381.999 409.618 382.364C408.997 383.756 408.11 385.029 407.231 386.281C406.017 388.013 404.715 389.814 402.804 390.733C401.981 391.132 401.08 391.342 400.186 391.539C397.714 392.087 394.058 392.202 392.157 390.15C391.31 389.24 390.968 387.949 390.813 386.74C390.664 385.549 390.624 384.535 390.301 383.337C390.223 383.044 390.144 382.752 390.054 382.461C389.91 381.995 389.745 381.535 389.504 381.112C389.112 380.427 388.517 379.821 387.759 379.592C386.464 379.198 384.909 379.932 383.783 379.184C383.202 378.796 382.907 378.114 382.646 377.472C382.383 376.833 382.149 376.123 381.889 375.423C381.542 374.499 381.142 373.589 380.57 372.862C380.265 372.479 379.908 372.128 379.667 371.7C379.335 371.116 378.952 370.571 378.926 369.905C378.801 366.86 381.308 363.853 383.409 361.914C384.54 360.873 385.792 359.934 387.204 359.324C388.445 358.792 389.785 358.527 391.115 358.338C395.072 357.768 399.308 357.862 402.799 359.804C403.722 360.317 404.61 360.991 405.058 361.952C405.157 362.164 405.234 362.394 405.387 362.578C405.589 362.817 405.898 362.943 406.186 363.078C407.136 363.52 407.914 364.079 408.547 364.732C411.751 368.027 411.29 373.646 410.684 378.028Z" fill="#E41B22"/>
<path d="M389.178 378.171C391.685 377.959 392.378 381.065 390.694 383.504C390.201 384.216 389.324 384.857 388.674 385.427C384.239 389.337 383.039 385.207 384.444 383.88C387.714 380.79 386.02 378.437 389.178 378.171Z" fill="#F9D5C3"/>
<path d="M388.497 382.921C388.781 382.654 391.617 380.914 389.646 379.796C389.099 379.486 388.507 379.968 388.435 380.544C388.396 380.841 388.495 381.143 388.453 381.439C388.432 381.616 388.36 381.783 388.27 381.936C388.024 382.353 387.162 382.765 387.342 383.369C387.504 383.902 388.335 383.076 388.497 382.921Z" fill="#FFBFA2"/>
<path d="M375.119 329.198C374.853 328.973 374.624 328.687 374.659 328.367C374.709 327.904 375.347 327.692 375.736 327.636C376.385 327.541 377.058 327.716 377.657 327.964C378.445 328.295 379.178 328.764 379.991 329.02C380.218 329.09 380.461 329.144 380.691 329.086C380.921 329.029 381.13 328.827 381.121 328.588C381.108 328.153 380.394 327.789 380.09 327.564C379.601 327.201 379.085 326.874 378.545 326.586C377.729 326.151 376.7 325.622 375.768 325.501C374.745 325.367 373.632 325.568 372.581 325.471C372.374 325.453 372.157 325.428 371.97 325.336C371.666 325.19 371.468 324.895 371.299 324.606C371.117 324.291 370.952 323.966 370.804 323.635L370.765 323.439L370.916 323.266C372.087 322.482 373.579 322.061 374.894 321.575C375.84 321.23 376.79 320.897 377.749 320.581C377.977 320.505 378.213 320.429 378.45 320.458C378.698 320.489 378.918 320.627 379.137 320.746C379.801 321.113 380.533 321.334 381.238 321.617C383.688 322.606 385.752 324.354 387.72 326.118C389.033 327.298 390.382 328.476 391.646 329.698C392.666 330.687 392.044 332.611 391.123 333.448C390.92 333.635 390.695 333.798 390.454 333.931C389.529 334.448 388.468 334.417 387.468 334.156C386.966 334.023 384.673 333.171 383.966 332.971C381.056 332.151 378.162 331.138 375.587 329.53L375.119 329.198Z" fill="#F9D5C3"/>
<path d="M430.48 335.338C438.012 330.433 440.928 322.525 438.185 319.91C433.487 315.431 429.401 318.424 418.695 327.775C418.46 327.98 418.222 328.185 417.985 328.39C415.359 330.638 412.744 332.905 410.327 335.381C408.971 336.77 407.665 338.223 406.517 339.795C406.256 340.158 405.997 340.525 405.758 340.903C405.512 341.295 405.451 341.757 405.312 342.198C404.961 343.32 404.656 344.471 404.63 345.653C404.598 347.117 405.059 348.662 406.172 349.614C407.444 350.702 409.341 350.806 410.929 350.275C412.719 349.678 419.124 348.441 423.845 343.854C426.928 340.86 420.753 341.671 430.48 335.338Z" fill="#D3D3F5"/>
<path d="M389.038 329.775C389.493 329.108 389.921 328.663 390.72 328.843C391.516 329.023 392.284 329.361 393.004 329.741C394.517 330.536 395.864 331.592 397.256 332.568C399.089 333.856 400.957 334.901 402.88 336.041C404.265 336.865 405.617 337.737 406.918 338.685C409.337 340.446 414.686 344.484 412.143 348.029C411.225 349.308 409.083 350.54 407.409 350.317C406.137 350.146 404.619 348.635 403.634 347.921C401.344 346.263 399.107 344.531 396.871 342.8C394.141 340.689 391.542 338.266 388.779 336.142C387.662 335.282 386.892 335.185 387.268 333.561C387.565 332.286 388.22 331.063 388.916 329.962L389.038 329.775Z" fill="#D3D3F5"/>
<path d="M463.933 324.57C463.939 323.063 464.045 321.55 464.091 320.041C464.189 316.908 464.167 313.753 463.62 310.658C462.969 306.962 461.572 303.399 459.539 300.244C459.232 299.768 458.906 299.296 458.489 298.913C457.438 299.064 456.108 298.719 455.165 299.221C453.766 299.965 452.771 302.406 452.163 303.775C450.523 307.476 450.016 311.692 450.843 315.663C451.163 317.194 451.848 318.365 452.37 319.788C453.003 321.512 453.586 323.225 454.595 324.779C455.841 326.696 457.714 328.32 459.96 328.755C461.086 328.973 462.385 328.829 463.163 327.986C464.014 327.063 463.93 325.798 463.933 324.642V324.57Z" fill="#302534"/>
<path d="M463.195 323.845C459.778 322.291 453.523 319.23 450.152 316.924C449.659 316.588 447.393 318.073 446.809 317.949C442.443 317.025 437.796 317.232 433.747 319.014L433.612 319.079V345.876H459.294L463.195 323.845Z" fill="#FFBFA2"/>
<path d="M453.517 321.798C453.517 321.798 437.533 329.833 438.302 320.958C439.372 308.591 440.16 307.212 445.704 305.616C447.222 305.178 447.819 303.897 449.392 303.96C455.13 304.19 452.723 307.185 452.378 309.356C451.349 315.791 453.617 318.39 453.517 321.798Z" fill="#FFBFA2"/>
<path d="M439.08 317.009L438.864 317.018C439.501 316.823 439.866 316.989 439.08 317.009Z" fill="#E3E2F2"/>
<path d="M471.419 333.068C471.451 333.559 471.455 334.072 471.433 334.606C471.372 336.09 470.982 337.52 470.656 338.957C470.271 340.658 469.455 342.192 468.537 343.662C467.57 345.218 466.777 346.802 465.814 348.365C464.841 349.948 464.338 351.55 463.57 353.229C461.852 356.982 460.314 360.869 459.629 364.959C459.079 368.249 459.079 371.576 459.262 374.884C459.365 376.457 459.629 378.069 459.546 379.621C459.526 380.051 459.629 380.828 459.546 381.195C459.424 381.767 459.138 381.97 458.607 382.378C455.749 384.603 452.359 385.891 448.848 386.502C445.068 387.136 440.985 386.871 437.35 386.258C436.269 386.074 435.247 385.869 434.267 385.646C429.936 384.625 426.691 383.317 426.138 382.909C425.343 382.297 425.69 382.479 426.364 376.7C429.141 352.973 418.666 352.545 422.749 340.128C423.441 338.003 424.873 336.003 425.751 333.879C428.997 326.099 426.956 317.442 438.861 317.01C438.127 317.237 431.235 328.845 439.53 332.25C444.879 334.444 455.469 328.591 457.94 321.322C461.465 322.971 464.667 324.018 467.604 326.187C470.111 328.036 471.234 330.226 471.419 333.068Z" fill="#F4F4FA"/>
<path d="M449.5 491.356C449.09 492.002 448.824 492.743 448.567 493.468C447.637 496.094 446.705 498.72 445.775 501.346C444.952 503.666 444.682 506.15 444.389 508.605C444.158 510.526 443.45 512.894 444.797 514.492C446.137 516.082 448.565 516.465 450.513 515.738C452.461 515.013 453.948 513.359 454.905 511.513C456.061 509.279 456.301 506.974 456.668 504.531C457.07 501.858 457.473 499.189 457.876 496.518C458.04 495.428 458.204 494.306 457.946 493.236C457.252 490.353 452.211 488.416 450.027 490.68C449.828 490.889 449.653 491.115 449.5 491.356Z" fill="#19121B"/>
<path d="M427.932 496.693C427.903 495.313 428.534 493.991 429.333 492.862C430.608 491.058 432.304 489.615 433.696 487.91C434.374 487.079 434.797 486.202 435.313 485.292C435.871 484.311 436.923 483.464 437.657 482.596L438.016 482.196C439.254 480.858 440.894 479.806 442.673 479.364C444.157 478.997 446.543 478.892 447.588 480.175C449.094 482.024 448.815 484.045 448.23 486.155C447.632 488.308 445.734 488.988 444.234 490.484C443.468 491.25 442.926 492.121 442.144 492.893C441.13 493.893 440.198 494.972 439.207 495.995C437.854 497.394 436.362 498.713 434.572 499.479C432 500.58 428.088 500.351 427.935 496.792L427.932 496.693Z" fill="#19121B"/>
<path d="M421.912 441.325C423.292 444.539 433.045 468.565 435.236 476.425C436.207 479.909 437.215 484.477 434.749 487.574C434.2 488.261 433.581 488.919 433.247 489.732C432.91 490.544 432.93 491.583 433.562 492.195C434.13 492.747 435.044 492.799 435.79 492.531C436.536 492.265 437.152 491.734 437.749 491.214C439.601 489.601 441.454 487.973 443.028 486.09C443.918 485.022 444.716 483.871 445.35 482.628C445.995 481.36 446.573 480.329 445.92 479.029C444.529 476.252 443.939 473.029 443.7 469.959C443.549 468.016 443.549 466.065 443.612 464.119C443.671 462.329 443.936 460.496 443.824 458.716C443.596 455.077 443.45 451.394 442.477 447.86C441.835 445.529 440.792 443.268 439.267 441.381C437.697 439.44 435.531 438.255 433.797 436.503C432.765 435.46 431.416 434.404 429.864 434.665L421.912 441.325Z" fill="#FFBFA2"/>
<path d="M464.541 400.339C464.464 395.769 464.35 393.207 463.717 388.677C463.311 385.767 460.999 377.813 460.999 377.813C460.999 377.813 449.129 382.909 445.38 383.279C440.817 383.729 438.996 383.846 435.413 383.162C433.783 382.849 433.656 382.93 433.67 384.555C433.69 386.815 434.578 389.377 435.013 391.6C436.71 400.24 439.298 408.871 440.647 417.56C441.746 424.634 441.433 432.156 442.406 439.348C442.817 442.401 444.458 445.469 445.839 448.091C447.447 451.144 449.066 452.847 452.041 452.516C453.39 452.367 455.715 450.834 456.46 449.692C456.938 448.958 457.043 447.51 457.316 446.647C458.106 444.158 458.773 441.627 459.321 439.073C459.435 438.541 459.537 438.005 459.645 437.492L459.676 437.311C461.021 430.51 461.778 423.539 462.8 416.69C463.597 411.341 464.633 405.848 464.541 400.339Z" fill="#F9D5C3"/>
<path d="M441.498 434.624C442.126 443.057 445.545 449.167 446.962 457.493C448.523 466.662 448.705 475.986 448.777 485.263C448.806 489.22 449.079 493.457 448.421 497.362C448.013 499.794 445.847 503.846 447.793 506.026C448.493 506.808 449.538 507.226 450.583 507.31C451.484 507.384 452.428 507.215 453.171 506.699C454.466 505.799 454.716 503.479 455.183 502.058C456.82 497.073 457.727 491.957 459.106 486.91C460.628 481.349 462.973 476.009 463.822 470.274C464.31 466.975 464.256 463.621 464.202 460.286C464.094 453.71 461.856 444.687 459.176 438.71C458.531 437.268 458.344 438.987 456.788 438.705L441.498 434.624Z" fill="#F9D5C3"/>
<path d="M419.221 434.588C418.608 437.609 418.381 440.394 420.649 443.494C423.273 447.084 427.723 448.98 432.142 449.493C436.559 450.003 441.016 449.295 445.406 448.59C450.39 447.788 455.376 446.985 460.36 446.183C461.511 445.998 462.766 445.757 463.516 444.863C464.328 443.894 464.275 442.491 464.18 441.23C463.721 435.185 463.29 429.341 463.594 423.347C463.939 416.523 465.078 409.595 465.078 402.771C465.401 396.33 465.067 389.663 462.754 383.574C462.234 382.207 461.497 378.164 460.069 377.565C457.853 376.634 453.601 379.555 451.536 380.269C448.719 381.24 438.647 383.116 436.349 383.234C431.836 383.466 430.975 379.698 425.309 379.742C423.734 379.752 422.777 390.952 422.543 392.461C421.947 396.305 421.456 400.168 421.19 404.05C420.946 407.634 421.46 410.951 421.404 414.489C421.322 419.859 420.944 425.404 420.027 430.699C419.789 432.061 419.473 433.343 419.221 434.588Z" fill="#E41B22"/>
<path d="M425.306 379.742C425.896 377.727 426.451 375.896 426.451 375.896C426.451 375.896 433.727 382.332 443.486 381.616C452.837 380.929 459.536 375.536 459.27 375.036C459.873 375.943 460.445 376.871 460.997 377.814C450.883 386.587 435.982 386.344 425.306 379.742Z" fill="#E41B22"/>
<path d="M447.586 314.12C448.025 313.836 448.453 313.527 448.865 313.183C449.055 313.023 449.24 312.858 449.422 312.687C451.001 311.199 451.965 309.169 453.169 307.394C454.384 305.604 455.054 303.253 455.363 301.133C455.994 296.814 454.884 292.302 451.827 289.104C448.399 285.517 442.938 284.021 438.159 285.355C436.864 285.719 435.631 286.266 434.435 286.875C433.402 287.404 432.373 287.99 431.584 288.841C431.068 289.4 430.666 290.057 430.298 290.726C429.641 291.926 429.294 293.111 428.92 294.417C428.715 295.136 428.785 295.899 428.785 296.638C428.785 297.951 428.877 299.219 429.132 300.51C429.343 301.571 429.488 302.642 429.514 303.719C429.539 304.811 429.003 305.742 428.657 306.755C428.445 307.377 428.078 308.347 428.265 308.971C428.469 309.654 429.206 310.201 429.548 310.823C429.916 311.491 430.028 311.987 430.057 312.762C430.077 313.261 430.246 313.582 430.438 314.023C430.602 314.394 430.512 314.665 430.568 315.038C430.634 315.476 430.974 315.859 431.132 316.268C431.31 316.728 431.46 317.178 431.701 317.615C433.123 320.187 435.197 320.356 437.764 319.36C439.775 318.581 441.616 317.572 443.453 316.469C444.825 315.642 446.257 314.985 447.586 314.12Z" fill="#F9D5C3"/>
<path d="M460.003 296.726C459.933 295.534 459.716 294.348 459.351 293.208C458.998 292.107 458.509 291.052 457.901 290.068C457.59 289.564 457.257 289.041 456.861 288.6C456.502 288.197 455.737 287.776 455.541 287.285C455.516 287.222 453.464 282.136 444.007 282.138C440.444 282.14 436.956 283.436 433.942 285.303C431.803 286.625 430.492 287.807 429.471 290.152C428.458 292.471 427.954 295.008 428.026 297.537C428.039 297.919 428.077 298.336 428.339 298.613C428.733 299.03 429.411 298.931 429.967 298.787C432.062 298.25 433.809 297.557 435.658 296.5C436.514 296.009 438.782 294.958 439.787 295.417C440.618 295.794 439.998 297.942 440.311 298.897C440.706 300.108 441.476 301.199 442.525 301.926C443.458 302.573 444.557 302.937 445.557 303.478C446.554 304.021 447.507 304.827 447.78 305.93C448.068 307.102 447.672 308.671 448.712 309.284C449.949 310.018 453.354 307.181 453.178 307.478C452.358 308.868 452.473 308.627 452.172 311.081C456.093 308.752 459.101 304.554 459.838 299.998C460.012 298.919 460.07 297.818 460.003 296.726Z" fill="#3E3544"/>
<path d="M451.933 302.816C454.419 302.658 455.036 305.746 453.32 308.122C452.82 308.816 451.937 309.43 451.282 309.98C446.814 313.755 445.713 309.647 447.132 308.361C450.433 305.376 448.805 303.014 451.933 302.816Z" fill="#F9D5C3"/>
<path d="M450.32 308.462C450.606 308.201 453.446 306.541 451.519 305.395C450.989 305.077 450.392 305.543 450.305 306.106C450.262 306.401 450.352 306.701 450.309 306.994C450.28 307.167 450.208 307.33 450.116 307.48C449.861 307.888 449.003 308.28 449.168 308.879C449.316 309.411 450.154 308.611 450.32 308.462Z" fill="#FFBFA2"/>
<path d="M464.566 368.119C464.318 368.371 464.047 368.599 463.694 368.763C463.171 369.006 462.561 369.083 462.014 368.901C461.311 368.668 460.811 368.058 460.334 367.491C459.563 366.574 458.746 365.693 457.89 364.853C457.667 364.633 457.399 364.403 457.086 364.43C456.805 364.455 456.581 364.702 456.502 364.972C456.449 365.153 456.602 366.04 456.489 366.065C456.257 366.123 455.712 365.793 455.485 365.718C455.09 365.587 454.689 365.47 454.284 365.365C453.453 365.151 452.608 364.993 451.753 364.891C450.072 364.693 448.365 364.714 446.688 364.966L446.26 365.094L446.057 365.47C446.082 365.632 446.235 365.74 446.381 365.82C447.496 366.441 448.798 366.54 450.018 366.837C450.543 366.964 450.996 367.227 451.518 367.38C452.19 367.574 452.849 367.826 453.48 368.128C451.422 367.659 449.316 367.407 447.205 367.374C446.771 367.367 445.755 367.398 445.491 367.811C445.133 368.374 446.063 368.74 446.437 368.876C447.582 369.288 448.726 369.7 449.87 370.112C448.613 369.66 447.206 369.538 445.884 369.68C445.235 369.75 444.766 369.763 444.938 370.54C445.052 371.054 445.46 371.49 445.987 371.58C446.784 371.718 447.572 371.83 448.367 372.004C449.471 372.243 450.566 372.551 451.602 373.009C450.712 373.072 449.811 373.137 448.964 373.416C448.268 373.644 447.449 374.072 447.054 374.722C446.793 375.152 446.739 376.006 447.399 376.062C448.1 376.119 448.809 376.132 449.512 376.101C450.996 376.035 452.489 375.819 453.969 376.036C456.117 376.355 458.055 377.576 460.21 377.858C462.151 378.114 464.097 377.576 465.829 376.723C467.444 375.929 468.633 374.52 470.151 373.572C471.072 372.999 472.068 372.678 472.827 371.898C473.673 371.029 474.486 370.132 475.268 369.205C475.642 368.759 476.027 368.267 476.063 367.684C476.115 366.876 475.484 366.193 474.824 365.723C473.948 365.099 472.937 364.669 471.883 364.452C470.897 364.248 469.798 364.043 468.852 364.488C467.611 365.074 466.52 366.317 465.475 367.196C465.135 367.482 464.867 367.817 464.566 368.119Z" fill="#F9D5C3"/>
<path d="M468.116 326.34C467.879 326.164 467.641 325.978 467.406 325.788C466.641 325.164 465.618 324.658 464.69 324.996C463.967 325.259 463.506 325.962 463.184 326.66C462.346 328.486 462.125 330.529 461.985 332.531C461.841 334.568 461.772 336.63 462.12 338.644C462.431 340.446 463.139 342.865 464.665 344.02C466.132 345.131 467.542 346.347 468.97 347.533C471.848 349.923 474.771 352.259 477.746 354.527C479.123 355.578 480.656 357.088 482.284 357.75C486.895 359.624 491.395 357.205 492.196 353.777C492.498 352.479 491.983 351.051 491.419 349.898C490.595 348.216 489.181 346.941 487.962 345.57C486.541 343.971 485.098 342.387 483.643 340.818C479.785 336.66 475.87 332.439 471.497 328.811C470.406 327.905 469.24 327.178 468.116 326.34Z" fill="#F4F4FA"/>
<path d="M468.964 374.24C471.027 374.819 472.466 373.256 473.82 372.191C476.994 369.7 488.901 361.538 492.007 354.392C492.755 352.673 488.473 351.038 486.48 349.299C485.117 348.11 482.779 348.734 481.266 349.221C479.385 349.826 464.681 366.867 464.411 367.815C463.831 369.849 467.367 373.79 468.964 374.24Z" fill="#F4F4FA"/>
<path d="M300.89 96.2518L300.84 78.2246L302.977 76.9889L303.029 95.018L300.89 96.2518Z" fill="#BFBEED"/>
<path d="M300.549 96.4496L300.497 78.4241L300.842 78.2245L300.893 96.2518L300.549 96.4496Z" fill="#E9E9F7"/>
<path d="M165.009 367.966C160.026 367.966 156.594 364.02 156.58 357.182L156.115 195.122L156.072 179.325C156.049 169.665 162.835 157.9 171.24 153.053L300.497 78.4242L300.549 96.4496L183.013 164.314C174.607 169.159 167.822 180.924 167.844 190.586L167.887 206.381L168.348 367.43C167.179 367.79 166.06 367.966 165.009 367.966Z" fill="#E41B22"/>
<path d="M303.632 307.845L303.582 289.818L390.868 239.427C399.272 234.569 406.069 222.815 406.035 213.153L405.573 51.1036L405.531 36.3012C406.699 35.9433 407.816 35.7688 408.862 35.7688C413.85 35.7688 417.285 39.7167 417.301 46.5567L417.345 62.3645L417.807 224.414C417.841 234.076 411.044 245.828 402.639 250.686L303.632 307.845Z" fill="#F2F2FC"/>
<path d="M301.496 309.08L301.443 291.053L303.582 289.818L303.632 307.845L301.496 309.08Z" fill="#BFBEED"/>
<path d="M301.174 309.264L301.122 291.239L301.442 291.053L301.494 309.081L301.174 309.264Z" fill="#E9E9F7"/>
<path d="M176.779 379.225C171.795 379.225 168.364 375.281 168.349 368.443L168.346 367.43C169.47 367.085 170.641 366.569 171.844 365.873L301.123 291.238L301.175 309.264L183.616 377.134C181.161 378.553 178.837 379.225 176.779 379.225Z" fill="#E41B22"/>
<path d="M303.581 289.818L303.029 95.0179L402.033 37.8533C403.236 37.1609 404.409 36.6447 405.531 36.3012L405.572 51.1035L406.034 213.153C406.069 222.815 399.272 234.569 390.867 239.427L303.581 289.818Z" fill="#E8E8F9"/>
<path d="M301.441 291.053L300.889 96.2517L303.027 95.0178L303.579 289.817L301.441 291.053Z" fill="#BFBEED"/>
<path d="M301.124 291.238L300.549 96.4495L300.892 96.2517L301.445 291.053L301.124 291.238Z" fill="#E1E0F5"/>
<path d="M168.345 367.43L167.885 206.381L167.842 190.586C167.82 180.924 174.605 169.159 183.011 164.314L300.547 96.4496L301.123 291.238L171.844 365.873C170.64 366.569 169.47 367.085 168.345 367.43Z" fill="#FE8786"/>
<path d="M424.036 45.555L427.862 47.7781C425.135 46.1935 421.358 46.4165 417.189 48.823L413.365 46.6C417.533 44.1935 421.31 43.9704 424.036 45.555Z" fill="#F4F4FA"/>
<mask id="mask3_829_5647" style="mask-type:luminance" maskUnits="userSpaceOnUse" x="413" y="44" width="15" height="5">
<path d="M424.032 45.5548L427.858 47.7779C425.131 46.1933 421.354 46.4163 417.185 48.8228L413.361 46.5998C417.529 44.1933 421.306 43.9684 424.032 45.5548Z" fill="white"/>
</mask>
<g mask="url(#mask3_829_5647)">
<path d="M417.185 48.8228L413.361 46.5998C417.529 44.1933 421.306 43.9702 424.032 45.5548L427.858 47.7779C425.131 46.1933 421.354 46.4163 417.185 48.8228Z" fill="#FE8786"/>
</g>
<path d="M191.262 384.229L187.437 382.004C184.746 380.441 183.077 377.117 183.064 372.391L186.89 374.614C186.903 379.34 188.572 382.664 191.262 384.229Z" fill="#BFBEED"/>
<mask id="mask4_829_5647" style="mask-type:luminance" maskUnits="userSpaceOnUse" x="183" y="372" width="9" height="13">
<path d="M191.263 384.229L187.438 382.004C184.747 380.441 183.078 377.118 183.065 372.391L186.891 374.614C186.904 379.341 188.573 382.664 191.263 384.229Z" fill="white"/>
</mask>
<g mask="url(#mask4_829_5647)">
<path d="M191.263 384.229L187.438 382.004C184.747 380.441 183.078 377.118 183.065 372.391L186.891 374.614C186.904 379.341 188.573 382.664 191.263 384.229Z" fill="#BFBEED"/>
</g>
<path d="M186.391 199.336L182.567 197.113L182.611 212.694L186.436 214.903L186.391 199.336Z" fill="#FF6661"/>
<path d="M182.61 212.694L183.064 372.391L186.889 374.614L186.436 214.903L182.61 212.694Z" fill="#BFBEED"/>
<path d="M201.343 173.442L197.518 171.219L413.364 46.5998L417.188 48.8229L201.343 173.442Z" fill="#FE8786"/>
<path d="M186.391 199.336L182.567 197.113C182.54 187.595 189.235 176.001 197.517 171.219L201.343 173.442C193.059 178.224 186.366 189.82 186.391 199.336Z" fill="#F4F4FA"/>
<mask id="mask5_829_5647" style="mask-type:luminance" maskUnits="userSpaceOnUse" x="182" y="171" width="20" height="29">
<path d="M186.393 199.336L182.569 197.113C182.541 187.597 189.237 176.001 197.519 171.219L201.345 173.442C193.061 178.224 186.368 189.82 186.393 199.336Z" fill="white"/>
</mask>
<g mask="url(#mask5_829_5647)">
<path d="M186.393 199.336L182.569 197.113C182.542 187.595 189.237 176.001 197.519 171.219L201.345 173.442C193.061 178.224 186.368 189.82 186.393 199.336Z" fill="#FF6661"/>
</g>
<path d="M432.733 232.675C432.765 242.195 426.067 253.777 417.785 258.565L201.938 383.179C193.655 387.966 186.914 384.134 186.893 374.614L186.438 214.903L186.393 199.336C186.373 189.814 193.058 178.221 201.342 173.445L417.187 48.8193C425.47 44.044 432.211 47.8768 432.233 57.3968L432.278 72.9743L432.733 232.675Z" fill="#F3F2FC"/>
<path d="M432.278 72.9744L186.438 214.903L186.393 199.336C186.373 189.814 193.058 178.221 201.342 173.445L417.187 48.8194C425.47 44.0442 432.211 47.877 432.233 57.3969L432.278 72.9744Z" fill="#FE4340"/>
<path d="M346.822 171.584C346.822 150.418 332.097 141.761 313.936 152.247C295.774 162.733 281.053 188.39 281.053 209.554C281.053 230.718 295.776 239.374 313.938 228.889C332.098 218.403 346.822 192.748 346.822 171.584Z" fill="#E41B22"/>
<path d="M324.128 163.523C324.128 170.082 319.565 178.034 313.936 181.284C308.306 184.535 303.743 181.852 303.743 175.291C303.743 168.731 308.306 160.778 313.936 157.528C319.565 154.28 324.128 156.961 324.128 163.523Z" fill="white"/>
<path d="M329.892 209.151V189.546C329.894 180.978 323.878 177.44 316.523 181.687L311.354 184.67C304.002 188.915 297.985 199.399 297.985 207.969V227.572L329.892 209.151Z" fill="white"/>
<path d="M365.221 225.023L262.653 284.238V266.975L365.221 207.761V225.023Z" fill="white"/>
<path d="M333.55 280.699L295.324 302.767V313.843L333.55 291.774V280.699Z" fill="#E41B22"/>
<path d="M365.224 251.77L262.657 310.987V293.724L365.224 234.507V251.77Z" fill="white"/>
<path d="M270.361 298.258L268.496 298.694L268.78 297.454L270.645 297.176L270.59 294.756L271.534 294.211L271.473 296.733L273.307 294.891L273.59 295.809L271.696 297.551L272.917 298.778L272.153 299.891L271.003 298.499L269.892 301.145L269.12 300.942L270.361 298.258Z" fill="#E41B22"/>
<path d="M275.806 295.114L273.94 295.55L274.225 294.311L276.09 294.032L276.034 291.613L276.978 291.068L276.917 293.589L278.75 291.748L279.034 292.665L277.138 294.408L278.361 295.634L277.595 296.746L276.448 295.356L275.336 298.001L274.565 297.798L275.806 295.114Z" fill="#E41B22"/>
<path d="M281.253 291.969L279.388 292.404L279.672 291.167L281.535 290.888L281.479 288.469L282.425 287.924L282.364 290.445L284.197 288.602L284.481 289.521L282.586 291.264L283.809 292.49L283.042 293.602L281.895 292.212L280.783 294.857L280.012 294.654L281.253 291.969Z" fill="#E41B22"/>
<path d="M286.697 288.825L284.834 289.262L285.118 288.023L286.981 287.744L286.926 285.325L287.872 284.78L287.809 287.301L289.643 285.458L289.928 286.377L288.032 288.12L289.255 289.346L288.489 290.458L287.341 289.068L286.228 291.713L285.456 291.51L286.697 288.825Z" fill="#E41B22"/>
<path d="M292.142 285.681L290.278 286.118L290.562 284.877L292.426 284.6L292.37 282.181L293.316 281.636L293.253 284.158L295.088 282.314L295.372 283.233L293.476 284.976L294.697 286.202L293.933 287.314L292.784 285.924L291.672 288.569L290.901 288.366L292.142 285.681Z" fill="#E41B22"/>
<path d="M408.62 70.7766C408.62 72.8144 410.052 73.6418 411.818 72.622C413.582 71.6022 415.014 69.1237 415.014 67.0841C415.014 65.0463 413.582 64.219 411.818 65.2388C410.052 66.2586 408.62 68.737 408.62 70.7766Z" fill="#F4F4FA"/>
<path d="M398.549 76.5914C398.549 78.6292 399.981 79.4548 401.747 78.435C403.513 77.417 404.943 74.9367 404.943 72.8989C404.943 70.8593 403.513 70.0338 401.747 71.0518C399.981 72.0716 398.549 74.5518 398.549 76.5914Z" fill="#F4F4FA"/>
<path d="M388.479 82.4045C388.479 84.4423 389.91 85.2696 391.676 84.2498C393.443 83.23 394.872 80.7515 394.872 78.7119C394.872 76.6741 393.443 75.8468 391.676 76.8666C389.91 77.8864 388.479 80.3649 388.479 82.4045Z" fill="#F4F4FA"/>
</svg>
