<svg width="96" height="122" viewBox="0 0 96 122" fill="none" xmlns="http://www.w3.org/2000/svg">
<path d="M1.17771 71.3054C0.773822 66.5062 3.4024 61.9636 7.76448 59.9222L41.2526 44.2504C44.6071 42.6806 48.4922 44.9679 48.747 48.6628L50.9606 80.7606C51.2871 85.495 48.6727 89.9439 44.3778 91.9625L10.7306 107.777C7.70818 109.197 4.19592 107.169 3.91585 103.841L1.17771 71.3054Z" stroke="black" stroke-width="0.95858"/>
<path d="M22.2666 31.045C21.8627 26.2459 24.4913 21.7032 28.8533 19.6618L62.3415 3.99004C65.696 2.42019 69.581 4.70757 69.8358 8.40247L72.0495 40.5003C72.376 45.2346 69.7616 49.6836 65.4667 51.7021L31.8194 67.5164C28.7971 68.9369 25.2848 66.9084 25.0047 63.5806L22.2666 31.045Z" stroke="#E41B22" stroke-width="0.95858"/>
<path d="M44.3153 81.4106C43.8946 76.4115 46.6327 71.6796 51.1766 69.5532L84.6647 53.8814C88.3242 52.1688 92.5624 54.6641 92.8404 58.6949L95.054 90.7927C95.3941 95.7243 92.6708 100.359 88.1969 102.461L54.5497 118.276C51.225 119.838 47.3616 117.607 47.0535 113.946L44.3153 81.4106Z" fill="#E41B22"/>
</svg>
