<svg width="69" height="75" viewBox="0 0 69 75" fill="none" xmlns="http://www.w3.org/2000/svg">
<g clip-path="url(#clip0_164_95)">
<path d="M63.8963 38.3744C62.5759 44.0904 57.8344 48.3787 52.0149 49.1202L34.9651 51.2924C30.4898 51.8626 26.837 47.7619 27.9187 43.382L31.253 29.881C32.639 24.269 37.3292 20.0841 43.0623 19.344L60.7426 17.0617C64.7771 16.5409 68.0941 20.2024 67.1785 24.166L63.8963 38.3744Z" stroke="black" stroke-width="1.16765"/>
<path d="M41.2322 60.6745C39.9118 66.3905 35.1703 70.6788 29.3508 71.4202L12.301 73.5925C7.82575 74.1626 4.17292 70.0619 5.25462 65.6821L8.58898 52.1811C9.97498 46.569 14.6651 42.3842 20.3982 41.6441L38.0785 39.3618C42.113 38.841 45.43 42.5025 44.5144 46.466L41.2322 60.6745Z" stroke="#E41B22" stroke-width="1.16765"/>
<path d="M37.5706 22.4654C36.1952 28.4196 31.2561 32.8866 25.1941 33.6589L8.14436 35.8311C3.26222 36.4532 -0.722684 31.9797 0.457355 27.2016L3.79171 13.7006C5.23547 7.85475 10.121 3.49553 16.093 2.72462L33.7733 0.442292C38.2113 -0.130592 41.86 3.89706 40.8528 8.257L37.5706 22.4654Z" fill="#E41B22"/>
</g>
<defs>
<clipPath id="clip0_164_95">
<rect width="69" height="75" fill="white"/>
</clipPath>
</defs>
</svg>
